<svg xmlns="http://www.w3.org/2000/svg" xmlns:xlink="http://www.w3.org/1999/xlink">
  <g>
    <path d="M446.533,142.01H43.467c-5.523,0-10-4.477-10-10V10c0-5.523,4.477-10,10-10h403.066c5.522,0,10,4.477,10,10v122.01     C456.533,137.533,452.056,142.01,446.533,142.01z M53.467,122.01h383.066V20H53.467V122.01z"/>
    <path d="M446.533,490H43.467c-5.523,0-10-4.477-10-10V357.991c0-5.523,4.477-10,10-10h403.066c5.522,0,10,4.477,10,10V480     C456.533,485.523,452.056,490,446.533,490z M53.467,470h383.066V367.991H53.467V470z"/>
    <path d="M142.925,307.566H43.467c-5.523,0-10-4.477-10-10V192.434c0-5.523,4.477-10,10-10h99.458c5.522,0,10,4.477,10,10v105.132     C152.925,303.089,148.447,307.566,142.925,307.566z M53.467,287.566h79.458v-85.132H53.467V287.566z"/>
    <path d="M294.729,307.566h-99.457c-5.522,0-10-4.477-10-10V192.434c0-5.523,4.478-10,10-10h99.457c5.522,0,10,4.477,10,10     v105.132C304.729,303.089,300.251,307.566,294.729,307.566z M205.271,287.566h79.457v-85.132h-79.457V287.566z"/>
    <path d="M446.533,307.566h-99.458c-5.522,0-10-4.477-10-10V192.434c0-5.523,4.478-10,10-10h99.458c5.522,0,10,4.477,10,10     v105.132C456.533,303.089,452.056,307.566,446.533,307.566z M357.075,287.566h79.458v-85.132h-79.458V287.566z"/>
  </g>
</svg>
